<mxfile host="app.diagrams.net" modified="2021-07-12T11:51:48.816Z" agent="5.0 (Windows NT 10.0; Win64; x64) AppleWebKit/537.36 (KHTML, like Gecko) Chrome/91.0.4472.124 Safari/537.36" etag="-bRam1Bo-IOfwQ3I_-1z" version="14.8.5" type="github">
  <diagram id="xvKgQSghzZq2tRreqABY" name="Page-1">
    <mxGraphModel dx="1108" dy="482" grid="1" gridSize="10" guides="1" tooltips="1" connect="1" arrows="1" fold="1" page="1" pageScale="1" pageWidth="827" pageHeight="1169" math="0" shadow="0">
      <root>
        <mxCell id="0" />
        <mxCell id="1" parent="0" />
        <mxCell id="dB5kBgmBfkfy6RZbMfpA-10" value="app1" style="ellipse;whiteSpace=wrap;html=1;" parent="1" vertex="1">
          <mxGeometry x="40" y="120" width="120" height="80" as="geometry" />
        </mxCell>
        <mxCell id="dB5kBgmBfkfy6RZbMfpA-11" value="app2" style="ellipse;whiteSpace=wrap;html=1;" parent="1" vertex="1">
          <mxGeometry x="40" y="210" width="120" height="80" as="geometry" />
        </mxCell>
        <mxCell id="dB5kBgmBfkfy6RZbMfpA-12" value="app3" style="ellipse;whiteSpace=wrap;html=1;" parent="1" vertex="1">
          <mxGeometry x="40" y="310" width="120" height="80" as="geometry" />
        </mxCell>
        <mxCell id="dB5kBgmBfkfy6RZbMfpA-15" value="cloud service" style="ellipse;shape=cloud;whiteSpace=wrap;html=1;" parent="1" vertex="1">
          <mxGeometry x="240" y="200" width="120" height="80" as="geometry" />
        </mxCell>
        <mxCell id="dB5kBgmBfkfy6RZbMfpA-19" value="" style="endArrow=classic;html=1;exitX=1;exitY=0.625;exitDx=0;exitDy=0;exitPerimeter=0;entryX=0.192;entryY=0.275;entryDx=0;entryDy=0;entryPerimeter=0;" parent="1" source="dB5kBgmBfkfy6RZbMfpA-10" target="dB5kBgmBfkfy6RZbMfpA-15" edge="1">
          <mxGeometry width="50" height="50" relative="1" as="geometry">
            <mxPoint x="390" y="280" as="sourcePoint" />
            <mxPoint x="440" y="230" as="targetPoint" />
          </mxGeometry>
        </mxCell>
        <mxCell id="dB5kBgmBfkfy6RZbMfpA-20" value="" style="endArrow=classic;html=1;exitX=1;exitY=0.5;exitDx=0;exitDy=0;entryX=0.13;entryY=0.77;entryDx=0;entryDy=0;entryPerimeter=0;" parent="1" source="dB5kBgmBfkfy6RZbMfpA-11" target="dB5kBgmBfkfy6RZbMfpA-15" edge="1">
          <mxGeometry width="50" height="50" relative="1" as="geometry">
            <mxPoint x="390" y="280" as="sourcePoint" />
            <mxPoint x="440" y="230" as="targetPoint" />
          </mxGeometry>
        </mxCell>
        <mxCell id="dB5kBgmBfkfy6RZbMfpA-21" value="" style="endArrow=classic;html=1;exitX=1.008;exitY=0.325;exitDx=0;exitDy=0;exitPerimeter=0;entryX=0.333;entryY=0.875;entryDx=0;entryDy=0;entryPerimeter=0;" parent="1" source="dB5kBgmBfkfy6RZbMfpA-12" target="dB5kBgmBfkfy6RZbMfpA-15" edge="1">
          <mxGeometry width="50" height="50" relative="1" as="geometry">
            <mxPoint x="390" y="280" as="sourcePoint" />
            <mxPoint x="300" y="290" as="targetPoint" />
          </mxGeometry>
        </mxCell>
        <mxCell id="dB5kBgmBfkfy6RZbMfpA-22" value="db2" style="shape=cylinder3;whiteSpace=wrap;html=1;boundedLbl=1;backgroundOutline=1;size=15;" parent="1" vertex="1">
          <mxGeometry x="440" y="200" width="60" height="80" as="geometry" />
        </mxCell>
        <mxCell id="dB5kBgmBfkfy6RZbMfpA-23" value="db3" style="shape=cylinder3;whiteSpace=wrap;html=1;boundedLbl=1;backgroundOutline=1;size=15;" parent="1" vertex="1">
          <mxGeometry x="440" y="300" width="60" height="80" as="geometry" />
        </mxCell>
        <mxCell id="dB5kBgmBfkfy6RZbMfpA-24" value="db1" style="shape=cylinder3;whiteSpace=wrap;html=1;boundedLbl=1;backgroundOutline=1;size=15;" parent="1" vertex="1">
          <mxGeometry x="440" y="90" width="60" height="80" as="geometry" />
        </mxCell>
        <mxCell id="dB5kBgmBfkfy6RZbMfpA-25" value="" style="endArrow=classic;html=1;exitX=0.96;exitY=0.7;exitDx=0;exitDy=0;exitPerimeter=0;" parent="1" source="dB5kBgmBfkfy6RZbMfpA-15" edge="1">
          <mxGeometry width="50" height="50" relative="1" as="geometry">
            <mxPoint x="390" y="280" as="sourcePoint" />
            <mxPoint x="440" y="230" as="targetPoint" />
          </mxGeometry>
        </mxCell>
        <mxCell id="dB5kBgmBfkfy6RZbMfpA-26" value="" style="endArrow=classic;html=1;exitX=0.942;exitY=0.375;exitDx=0;exitDy=0;exitPerimeter=0;entryX=0;entryY=1;entryDx=0;entryDy=-15;entryPerimeter=0;" parent="1" source="dB5kBgmBfkfy6RZbMfpA-15" target="dB5kBgmBfkfy6RZbMfpA-24" edge="1">
          <mxGeometry width="50" height="50" relative="1" as="geometry">
            <mxPoint x="390" y="280" as="sourcePoint" />
            <mxPoint x="440" y="230" as="targetPoint" />
          </mxGeometry>
        </mxCell>
        <mxCell id="dB5kBgmBfkfy6RZbMfpA-27" value="" style="endArrow=classic;html=1;exitX=0.675;exitY=0.963;exitDx=0;exitDy=0;exitPerimeter=0;entryX=0;entryY=0;entryDx=0;entryDy=27.5;entryPerimeter=0;" parent="1" source="dB5kBgmBfkfy6RZbMfpA-15" target="dB5kBgmBfkfy6RZbMfpA-23" edge="1">
          <mxGeometry width="50" height="50" relative="1" as="geometry">
            <mxPoint x="390" y="280" as="sourcePoint" />
            <mxPoint x="440" y="230" as="targetPoint" />
          </mxGeometry>
        </mxCell>
        <mxCell id="dB5kBgmBfkfy6RZbMfpA-30" value="" style="endArrow=classic;html=1;entryX=0;entryY=0.25;entryDx=0;entryDy=0;exitX=1;exitY=0;exitDx=0;exitDy=52.5;exitPerimeter=0;" parent="1" source="dB5kBgmBfkfy6RZbMfpA-24" edge="1">
          <mxGeometry width="50" height="50" relative="1" as="geometry">
            <mxPoint x="510" y="150" as="sourcePoint" />
            <mxPoint x="560" y="235" as="targetPoint" />
          </mxGeometry>
        </mxCell>
        <mxCell id="dB5kBgmBfkfy6RZbMfpA-31" value="" style="endArrow=classic;html=1;entryX=0;entryY=0.5;entryDx=0;entryDy=0;exitX=1;exitY=1;exitDx=0;exitDy=-15;exitPerimeter=0;" parent="1" source="dB5kBgmBfkfy6RZbMfpA-22" edge="1">
          <mxGeometry width="50" height="50" relative="1" as="geometry">
            <mxPoint x="510" y="270" as="sourcePoint" />
            <mxPoint x="560" y="250" as="targetPoint" />
          </mxGeometry>
        </mxCell>
        <mxCell id="dB5kBgmBfkfy6RZbMfpA-34" value="" style="endArrow=classic;html=1;exitX=1;exitY=0.5;exitDx=0;exitDy=0;exitPerimeter=0;" parent="1" source="dB5kBgmBfkfy6RZbMfpA-23" edge="1">
          <mxGeometry width="50" height="50" relative="1" as="geometry">
            <mxPoint x="390" y="280" as="sourcePoint" />
            <mxPoint x="580" y="280" as="targetPoint" />
          </mxGeometry>
        </mxCell>
        <mxCell id="dB5kBgmBfkfy6RZbMfpA-37" value="cloud service" style="ellipse;shape=cloud;whiteSpace=wrap;html=1;" parent="1" vertex="1">
          <mxGeometry x="550" y="210" width="120" height="80" as="geometry" />
        </mxCell>
        <mxCell id="dB5kBgmBfkfy6RZbMfpA-40" value="Log Viewer" style="shape=internalStorage;whiteSpace=wrap;html=1;backgroundOutline=1;" parent="1" vertex="1">
          <mxGeometry x="710" y="280" width="80" height="80" as="geometry" />
        </mxCell>
        <mxCell id="dB5kBgmBfkfy6RZbMfpA-42" value="" style="endArrow=classic;html=1;exitX=0.667;exitY=1;exitDx=0;exitDy=0;exitPerimeter=0;" parent="1" source="dB5kBgmBfkfy6RZbMfpA-37" edge="1">
          <mxGeometry width="50" height="50" relative="1" as="geometry">
            <mxPoint x="640" y="300" as="sourcePoint" />
            <mxPoint x="700" y="310" as="targetPoint" />
          </mxGeometry>
        </mxCell>
        <mxCell id="dB5kBgmBfkfy6RZbMfpA-43" value="Configuration" style="shape=internalStorage;whiteSpace=wrap;html=1;backgroundOutline=1;" parent="1" vertex="1">
          <mxGeometry x="720" y="130" width="80" height="80" as="geometry" />
        </mxCell>
        <mxCell id="dB5kBgmBfkfy6RZbMfpA-44" value="" style="endArrow=classic;html=1;exitX=0.525;exitY=0.088;exitDx=0;exitDy=0;exitPerimeter=0;entryX=0;entryY=0.5;entryDx=0;entryDy=0;" parent="1" source="dB5kBgmBfkfy6RZbMfpA-37" target="dB5kBgmBfkfy6RZbMfpA-43" edge="1">
          <mxGeometry width="50" height="50" relative="1" as="geometry">
            <mxPoint x="390" y="280" as="sourcePoint" />
            <mxPoint x="440" y="230" as="targetPoint" />
          </mxGeometry>
        </mxCell>
      </root>
    </mxGraphModel>
  </diagram>
</mxfile>
